<svg width="19" height="18" viewBox="0 0 19 18" fill="none" xmlns="http://www.w3.org/2000/svg">
<path d="M6.09193 12.9621L16.1457 0.577259C16.4581 0.192419 16.8558 0 17.3386 0C17.8214 0 18.219 0.192419 18.5314 0.577259C18.8438 0.962098 19 1.45189 19 2.04665C19 2.6414 18.8438 3.1312 18.5314 3.51604L7.28475 17.3703C6.94394 17.7901 6.54634 18 6.09193 18C5.63752 18 5.23991 17.7901 4.8991 17.3703L0.468609 11.9125C0.156203 11.5277 0 11.0379 0 10.4431C0 9.8484 0.156203 9.3586 0.468609 8.97376C0.781016 8.58892 1.17862 8.3965 1.66143 8.3965C2.14424 8.3965 2.54185 8.58892 2.85426 8.97376L6.09193 12.9621Z" fill="#9F4BFD"/>
</svg>
