<svg width="77" height="83" viewBox="0 0 77 83" fill="none" xmlns="http://www.w3.org/2000/svg">
<g filter="url(#filter0_d_14_115)">
<path d="M65.4056 40.0246C68.7374 33.8538 65.0743 28.5247 59.0992 23.7006L64.5481 15.651L59.6674 12.3545L54.379 20.2019C53.0856 19.3403 51.7539 18.4647 50.4082 17.6274L55.7106 9.74164L50.8299 6.4451L45.4333 14.4703C44.3421 13.7691 43.2893 13.0819 42.2748 12.4086L42.2888 12.3703L35.5186 7.82139L32.0058 13.0576C32.0058 13.0576 35.6593 15.4298 35.5687 15.4402C37.5593 16.7728 37.4124 18.3698 36.9169 19.4924L30.7145 28.6576C30.854 28.7518 31.0318 28.8599 31.22 29.0587C31.0422 28.9506 30.8644 28.8424 30.7005 28.6959L22.0354 41.5251C21.5296 42.0794 20.4763 42.8253 19.1202 41.8973C19.1306 41.988 15.5573 39.5148 15.5573 39.5148L10.6253 44.7122L17.0016 49.0309C18.1799 49.8506 19.3338 50.6181 20.4738 51.4239L14.997 59.5502L19.8777 62.8468L25.3265 54.7971C26.6443 55.7111 27.9621 56.6251 29.2171 57.4727L23.8205 65.498L28.7012 68.7945L34.178 60.6682C42.7542 65.7441 49.9088 67.5664 55.8142 60.291C60.5825 54.4693 59.5379 49.7024 55.6268 45.4124C59.4867 45.9052 62.9844 44.5289 65.4056 40.0246ZM46.8133 52.802C42.7353 58.875 32.7721 51.166 29.4637 48.9195L36.7301 38.1437C40.0385 40.3902 51.118 46.4641 46.8133 52.802ZM54.8241 36.0429C51.0706 41.5825 42.8435 35.07 40.0929 33.2003L46.686 23.4389C49.4366 25.3087 58.6997 30.2872 54.8241 36.0429Z" fill="#F9AA4B"/>
</g>
<defs>
<filter id="filter0_d_14_115" x="0.625244" y="0.445099" width="76.043" height="82.3494" filterUnits="userSpaceOnUse" color-interpolation-filters="sRGB">
<feFlood flood-opacity="0" result="BackgroundImageFix"/>
<feColorMatrix in="SourceAlpha" type="matrix" values="0 0 0 0 0 0 0 0 0 0 0 0 0 0 0 0 0 0 127 0" result="hardAlpha"/>
<feOffset dy="4"/>
<feGaussianBlur stdDeviation="5"/>
<feComposite in2="hardAlpha" operator="out"/>
<feColorMatrix type="matrix" values="0 0 0 0 0.976471 0 0 0 0 0.666667 0 0 0 0 0.294118 0 0 0 0.25 0"/>
<feBlend mode="normal" in2="BackgroundImageFix" result="effect1_dropShadow_14_115"/>
<feBlend mode="normal" in="SourceGraphic" in2="effect1_dropShadow_14_115" result="shape"/>
</filter>
</defs>
</svg>
