<svg width="45" height="45" viewBox="0 0 45 45" fill="none" xmlns="http://www.w3.org/2000/svg">
<g filter="url(#filter0_df_14_117)">
<path d="M30.021 31.066C30.3173 31.3146 30.5027 31.6707 30.5364 32.056C30.5701 32.4413 30.4494 32.8242 30.2008 33.1205L28.8479 34.7333C28.4366 35.2236 27.9034 35.5969 27.302 35.8158C26.7006 36.0347 26.0522 36.0914 25.422 35.9803L23.3484 35.613C22.9696 35.5436 22.6336 35.3272 22.4138 35.011C22.1939 34.6948 22.1081 34.3045 22.175 33.9253C22.2418 33.546 22.456 33.2086 22.7707 32.9867C23.0854 32.7648 23.4752 32.6763 23.8549 32.7407L25.928 33.1066C26.054 33.1289 26.1837 33.1175 26.304 33.0737C26.4242 33.03 26.5309 32.9553 26.6131 32.8572L27.966 31.2444C28.2146 30.9481 28.5707 30.7627 28.956 30.729C29.3413 30.6953 29.7247 30.8174 30.021 31.066ZM32.6713 17.3352C33.0348 17.2029 33.4359 17.2204 33.7864 17.3839C34.1369 17.5473 34.4082 17.8433 34.5405 18.2068L36.2937 23.0237C36.5125 23.6251 36.5693 24.2735 36.4581 24.9037C36.347 25.5339 36.0719 26.1238 35.6606 26.614L32.366 30.5415C32.2428 30.6882 32.0919 30.8092 31.9219 30.8977C31.752 30.9861 31.5662 31.0402 31.3754 31.0568C31.1845 31.0735 30.9922 31.0524 30.8095 30.9947C30.6268 30.9371 30.4573 30.844 30.3105 30.7208C30.1638 30.5976 30.0428 30.4467 29.9543 30.2768C29.8659 30.1068 29.8118 29.9211 29.7952 29.7302C29.7785 29.5394 29.7996 29.3471 29.8573 29.1644C29.9149 28.9817 30.008 28.8121 30.1312 28.6654L33.4263 24.7393C33.5086 24.6413 33.5636 24.5233 33.5858 24.3973C33.608 24.2712 33.5967 24.1415 33.5529 24.0212L31.7997 19.2043C31.6674 18.8409 31.6849 18.4398 31.8484 18.0892C32.0118 17.7387 32.3079 17.4675 32.6713 17.3352ZM11.3097 25.1102C11.6732 24.9779 12.0743 24.9954 12.4248 25.1588C12.7754 25.3223 13.0466 25.6183 13.1789 25.9818L14.9321 30.7987C14.9759 30.9189 15.0506 31.0256 15.1486 31.1078C15.2467 31.1901 15.3646 31.2451 15.4907 31.2673L20.5385 32.1568C20.9173 32.2262 21.2533 32.4426 21.4731 32.7588C21.6929 33.075 21.7788 33.4653 21.7119 33.8445C21.645 34.2238 21.4309 34.5612 21.1161 34.7831C20.8014 35.005 20.4117 35.0935 20.032 35.0291L14.9847 34.141C14.3544 34.0299 13.7646 33.7548 13.2743 33.3435C12.7841 32.9321 12.4107 32.399 12.1918 31.7976L10.4386 26.9807C10.3064 26.6172 10.3239 26.2161 10.4873 25.8656C10.6508 25.5151 10.9463 25.2424 11.3097 25.1102ZM25.1351 14.4058L25.3258 14.4265L27.8285 14.8471C28.0554 14.8854 28.2701 14.9769 28.4549 15.1141C28.6397 15.2513 28.7894 15.4303 28.8918 15.6365L28.9598 15.7979L29.8099 18.1889C29.885 18.4009 29.9101 18.6274 29.8831 18.8507C29.8562 19.074 29.7779 19.288 29.6545 19.4761L29.5526 19.6141L26.5757 23.1605L28.1603 27.5142C28.2372 27.726 28.264 27.9527 28.2385 28.1765C28.2131 28.4004 28.1362 28.6153 28.0138 28.8044L27.9138 28.9432L26.2971 30.8974C26.1529 31.0717 25.97 31.2101 25.7631 31.3016C25.5561 31.3931 25.3307 31.4352 25.1046 31.4245L24.9103 31.4021L22.4158 30.9443C22.1941 30.9036 21.9848 30.812 21.8044 30.6768C21.6241 30.5416 21.4775 30.3664 21.3763 30.1649L21.3084 30.0081L19.7237 25.6544L15.1636 24.8512C14.9418 24.812 14.732 24.722 14.5509 24.5882C14.3697 24.4543 14.222 24.2803 14.1193 24.0798L14.05 23.9235L13.1643 21.5455C13.0843 21.33 13.0563 21.0987 13.0827 20.8703C13.1091 20.642 13.1891 20.4231 13.3161 20.2316L13.4203 20.0913L15.0657 18.1608C15.2094 17.9918 15.3897 17.8579 15.593 17.7691C15.7963 17.6803 16.0171 17.6391 16.2387 17.6485L16.4294 17.6691L20.99 18.4737L23.9665 14.9259C24.1091 14.7563 24.2886 14.6214 24.4912 14.5315C24.6937 14.4416 24.9142 14.3991 25.1356 14.4072L25.1351 14.4058ZM25.6656 17.4408L22.6832 20.9938C22.5398 21.1649 22.359 21.3008 22.1548 21.391C21.9506 21.4812 21.7284 21.5233 21.5053 21.5141L21.3109 21.4917L16.7452 20.686L16.1963 21.3312L16.4925 22.1235L21.0596 22.9288C21.2829 22.9681 21.494 23.0591 21.676 23.1943C21.8581 23.3296 22.0061 23.5054 22.1083 23.7079L22.1767 23.8661L23.7633 28.2253L24.5952 28.3788L25.1337 27.7265L23.5471 23.3673C23.4695 23.1543 23.4426 22.926 23.4687 22.7008C23.4947 22.4755 23.5729 22.2594 23.6971 22.0697L23.8003 21.9312L26.7813 18.3786L26.4989 17.5813L25.6642 17.4413L25.6656 17.4408ZM30.7343 21.2744L30.7773 21.3627L31.4766 23.284C31.5545 23.4972 31.5816 23.7257 31.5556 23.9512C31.5296 24.1768 31.4514 24.3931 31.3271 24.5831L31.2238 24.7215L29.9085 26.2882C29.8645 26.3408 29.8087 26.3823 29.7457 26.4095C29.6827 26.4366 29.6142 26.4485 29.5458 26.4442C29.4773 26.44 29.4108 26.4197 29.3517 26.3851C29.2925 26.3504 29.2423 26.3023 29.2051 26.2447L29.1621 26.1563L28.4623 24.2337C28.385 24.0208 28.3584 23.7928 28.3845 23.5678C28.4106 23.3427 28.4888 23.1269 28.6128 22.9374L28.7169 22.797L30.0309 21.2309C30.0749 21.1783 30.1307 21.1367 30.1937 21.1096C30.2567 21.0825 30.3252 21.0706 30.3936 21.0748C30.4621 21.0791 30.5286 21.0993 30.5877 21.134C30.6469 21.1687 30.6971 21.2168 30.7343 21.2744ZM15.8351 26.3977L17.8498 26.7524C18.1019 26.7968 18.3378 26.9068 18.5339 27.0714C18.73 27.2359 18.8794 27.4492 18.9669 27.6897L19.6667 29.6124C19.693 29.6846 19.6999 29.7624 19.6866 29.838C19.6733 29.9137 19.6403 29.9845 19.5909 30.0434C19.5416 30.1023 19.4776 30.1471 19.4054 30.1734C19.3332 30.1997 19.2554 30.2065 19.1797 30.1931L17.1656 29.8399C16.9132 29.7954 16.6771 29.6852 16.4809 29.5204C16.2846 29.3556 16.1353 29.142 16.0479 28.9011L15.3481 26.9785C15.3218 26.9063 15.315 26.8285 15.3283 26.7528C15.3416 26.6772 15.3746 26.6063 15.4239 26.5475C15.4733 26.4886 15.5373 26.4438 15.6095 26.4175C15.6816 26.3912 15.7595 26.3844 15.8351 26.3977ZM27.7266 10.3417L29.8743 10.7208C30.5046 10.832 31.0945 11.107 31.5847 11.5184C32.075 11.9297 32.4483 12.4629 32.6672 13.0642L33.3869 15.0417C33.5192 15.4051 33.5017 15.8063 33.3382 16.1568C33.1748 16.5073 32.8788 16.7786 32.5153 16.9109C32.1519 17.0431 31.7508 17.0256 31.4002 16.8622C31.0497 16.6987 30.7784 16.4027 30.6462 16.0393L29.9264 14.0618C29.8826 13.9415 29.808 13.8349 29.7099 13.7526C29.6119 13.6703 29.4939 13.6153 29.3678 13.5931L27.2201 13.214C26.8413 13.1446 26.5053 12.9282 26.2855 12.612C26.0657 12.2958 25.9798 11.9055 26.0467 11.5263C26.1136 11.147 26.3278 10.8096 26.6425 10.5877C26.9572 10.3658 27.3469 10.2773 27.7266 10.3417ZM12.6053 16.4537C12.9016 16.7023 13.087 17.0585 13.1207 17.4438C13.1544 17.8291 13.0337 18.212 12.7851 18.5082L11.4322 20.1211C11.35 20.2192 11.295 20.3372 11.2727 20.4632C11.2505 20.5893 11.2618 20.7189 11.3056 20.8392L12.0254 22.8167C12.1576 23.1801 12.1401 23.5812 11.9767 23.9318C11.8132 24.2823 11.5172 24.5535 11.1538 24.6858C10.7903 24.8181 10.3892 24.8006 10.0387 24.6371C9.68812 24.4737 9.41688 24.1777 9.28459 23.8142L8.56485 21.8368C8.34575 21.2351 8.289 20.5863 8.40029 19.9557C8.51159 19.3251 8.78701 18.7349 9.19885 18.2445L10.5517 16.6316C10.8003 16.3354 11.1564 16.15 11.5417 16.1163C11.927 16.0826 12.3099 16.2033 12.6062 16.4519L12.6053 16.4537ZM20.0177 13.6705L22.0324 14.0251C22.1081 14.0384 22.179 14.0714 22.238 14.1207C22.2969 14.1701 22.3418 14.2342 22.3681 14.3064C22.3944 14.3787 22.4012 14.4566 22.3878 14.5323C22.3744 14.608 22.3413 14.6789 22.2918 14.7377L20.9754 16.3016C20.8108 16.4977 20.5976 16.6471 20.357 16.7346C20.1165 16.8222 19.8571 16.8449 19.605 16.8004L17.5903 16.4458C17.5146 16.4325 17.4437 16.3996 17.3847 16.3502C17.3258 16.3008 17.2809 16.2367 17.2546 16.1645C17.2283 16.0922 17.2215 16.0143 17.2349 15.9386C17.2483 15.8629 17.2815 15.792 17.331 15.7332L18.6473 14.1693C18.8119 13.9732 19.0252 13.8238 19.2657 13.7363C19.5063 13.6487 19.7656 13.626 20.0177 13.6705ZM19.4384 8.88103L24.4863 9.77051C24.8673 9.83761 25.2061 10.0533 25.4281 10.3702C25.6502 10.6872 25.7372 11.0793 25.6701 11.4603C25.603 11.8414 25.3872 12.1802 25.0703 12.4022C24.7534 12.6242 24.3613 12.7113 23.9803 12.6442L18.9314 11.7519C18.8054 11.7297 18.6757 11.7411 18.5554 11.7848C18.4352 11.8286 18.3285 11.9033 18.2463 12.0013L14.9512 15.9274C14.8285 16.0755 14.6778 16.198 14.5076 16.2876C14.3375 16.3773 14.1513 16.4324 13.9597 16.4498C13.7682 16.4672 13.5751 16.4465 13.3916 16.389C13.2081 16.3315 13.0378 16.2382 12.8904 16.1146C12.7431 15.991 12.6217 15.8394 12.5331 15.6687C12.4446 15.4979 12.3907 15.3114 12.3746 15.1197C12.3585 14.9281 12.3804 14.7351 12.4392 14.552C12.4979 14.3689 12.5923 14.1992 12.7169 14.0527L16.012 10.1266C16.4234 9.63636 16.9565 9.26303 17.5579 9.04414C18.1593 8.82526 18.8077 8.76853 19.4379 8.87966L19.4384 8.88103Z" fill="#FFD84F"/>
</g>
<defs>
<filter id="filter0_df_14_117" x="4.34473" y="6.82428" width="36.1687" height="37.2114" filterUnits="userSpaceOnUse" color-interpolation-filters="sRGB">
<feFlood flood-opacity="0" result="BackgroundImageFix"/>
<feColorMatrix in="SourceAlpha" type="matrix" values="0 0 0 0 0 0 0 0 0 0 0 0 0 0 0 0 0 0 127 0" result="hardAlpha"/>
<feOffset dy="4"/>
<feGaussianBlur stdDeviation="2"/>
<feComposite in2="hardAlpha" operator="out"/>
<feColorMatrix type="matrix" values="0 0 0 0 0 0 0 0 0 0 0 0 0 0 0 0 0 0 0.25 0"/>
<feBlend mode="normal" in2="BackgroundImageFix" result="effect1_dropShadow_14_117"/>
<feBlend mode="normal" in="SourceGraphic" in2="effect1_dropShadow_14_117" result="shape"/>
<feGaussianBlur stdDeviation="1" result="effect2_foregroundBlur_14_117"/>
</filter>
</defs>
</svg>
