<svg width="76" height="97" viewBox="0 0 76 97" fill="none" xmlns="http://www.w3.org/2000/svg">
<g filter="url(#filter0_d_14_129)">
<path d="M32.2289 16.3809L32.0781 17.7264L38.6227 54.8429L39.0653 55.1522L54.4986 41.9302L32.2289 16.3809Z" fill="#646464"/>
<path d="M32.2291 16.3809L20.0407 48.0061L39.0655 55.1523L35.889 37.1371L32.2291 16.3809Z" fill="#8C8C8C"/>
<path d="M39.6407 58.4145L39.4742 58.7104L41.8055 71.9321L42.1268 72.5142L55.0852 45.1958L39.6407 58.4145Z" fill="#3C3C3B"/>
<path d="M42.1268 72.5139L39.6406 58.4142L20.6167 51.2732L42.1268 72.5139Z" fill="#8C8C8C"/>
<path d="M39.0654 55.1522L54.4986 41.9304L35.8889 37.1372L39.0654 55.1522Z" fill="#343434"/>
<path d="M20.0407 48.0062L39.0652 55.1523L35.8887 37.1373L20.0407 48.0062Z" fill="#646464"/>
</g>
<defs>
<filter id="filter0_d_14_129" x="0.0407715" y="0.38092" width="75.0444" height="96.1333" filterUnits="userSpaceOnUse" color-interpolation-filters="sRGB">
<feFlood flood-opacity="0" result="BackgroundImageFix"/>
<feColorMatrix in="SourceAlpha" type="matrix" values="0 0 0 0 0 0 0 0 0 0 0 0 0 0 0 0 0 0 127 0" result="hardAlpha"/>
<feOffset dy="4"/>
<feGaussianBlur stdDeviation="10"/>
<feComposite in2="hardAlpha" operator="out"/>
<feColorMatrix type="matrix" values="0 0 0 0 1 0 0 0 0 1 0 0 0 0 1 0 0 0 0.25 0"/>
<feBlend mode="normal" in2="BackgroundImageFix" result="effect1_dropShadow_14_129"/>
<feBlend mode="normal" in="SourceGraphic" in2="effect1_dropShadow_14_129" result="shape"/>
</filter>
</defs>
</svg>
