<svg width="30" height="30" viewBox="0 0 30 30" fill="none" xmlns="http://www.w3.org/2000/svg">
<path d="M17.7475 18.6248C18.6452 16.6998 17.7928 15.499 15.6011 14.1416C14.0471 13.1488 13.9212 12.555 14.2805 11.7847C14.6397 11.0143 15.4233 10.7773 16.5272 11.292C17.5214 11.7556 17.9204 12.3433 17.8109 13.2974C17.8024 13.3907 17.8227 13.4842 17.869 13.5656C17.9153 13.647 17.9854 13.7122 18.0699 13.7525L18.9535 14.1646C19.0039 14.1897 19.0589 14.2044 19.1151 14.2076C19.1714 14.2109 19.2277 14.2027 19.2807 14.1836C19.3337 14.1645 19.3822 14.1347 19.4234 14.0963C19.4645 14.0578 19.4974 14.0114 19.5201 13.9598L19.5455 13.9054C19.716 13.2577 19.6679 12.5718 19.4086 11.9543C19.1492 11.3368 18.6932 10.8221 18.1114 10.4904L18.7267 9.17082C18.8294 8.95059 18.7405 8.7083 18.4907 8.52454L17.6615 8.13785C17.4412 8.03515 17.1984 8.12276 17.0147 8.3725L16.4247 9.6377C14.6648 9.08406 13.1031 9.69535 12.4616 11.0711C11.6155 12.8856 12.386 14.1154 14.5776 15.4728C15.9967 16.4688 16.3391 17.0312 15.9287 17.9112C15.5188 18.7904 14.4634 19.0353 13.4139 18.5459C11.9774 17.876 11.7626 17.0399 11.9817 16.137C12.0296 15.8923 11.9144 15.7039 11.7486 15.6266L10.8096 15.1888C10.7593 15.1638 10.7043 15.1492 10.6482 15.1461C10.592 15.1429 10.5358 15.1512 10.4829 15.1703C10.43 15.1895 10.3816 15.2192 10.3405 15.2576C10.2994 15.2961 10.2666 15.3424 10.2439 15.3939L10.2186 15.4483C9.79729 16.9268 10.2203 18.3289 11.9145 19.4543L11.2987 20.7748C11.1964 20.9941 11.2849 21.2373 11.5351 21.4202L12.3644 21.8069C12.5846 21.9096 12.8274 21.822 13.0107 21.5731L13.6269 20.2517C15.4126 20.7501 17.0553 20.1093 17.748 18.6239L17.7475 18.6248Z" fill="white"/>
<path d="M8.59223 21.3874C5.00209 17.8376 5.02394 12.0219 8.60118 8.53392C10.5072 6.60911 13.1501 5.69985 15.8 5.93033C16.0723 5.92378 16.2588 5.80997 16.3873 5.53445L16.7465 4.76409C16.8488 4.54477 16.8161 4.32868 16.6207 4.17028C16.5654 4.1445 16.4549 4.09294 16.3742 4.12154C14.9501 3.93008 13.5022 4.02221 12.1139 4.39263C10.7256 4.76304 9.42423 5.40443 8.2848 6.27985C7.14537 7.15527 6.19035 8.24743 5.47475 9.49346C4.75915 10.7395 4.29709 12.1148 4.11518 13.5401C3.67159 17.0847 4.94399 20.5579 7.57572 22.99C7.74572 23.2027 8.018 23.1962 8.17507 23.0013C8.25571 22.9727 8.28192 22.9165 8.33305 22.8069L8.69228 22.0365C8.7692 21.8716 8.70652 21.5753 8.59223 21.3874ZM22.4497 6.95568C22.2801 6.74199 22.0074 6.74944 21.8507 6.94341C21.7697 6.97291 21.7439 7.0282 21.6928 7.13786L21.3335 7.90822C21.2308 8.12846 21.2935 8.4247 21.4078 8.61261C24.9979 12.1625 24.9761 17.9781 21.3989 21.4661C19.4928 23.3909 16.8499 24.3002 14.2001 24.0697C13.9278 24.0762 13.7412 24.19 13.6127 24.4656L13.2535 25.2359C13.1512 25.4552 13.184 25.6713 13.3793 25.8297C13.4346 25.8555 13.5452 25.9071 13.6258 25.8785C15.0499 26.0699 16.4978 25.9778 17.8861 25.6074C19.2745 25.237 20.5758 24.5956 21.7152 23.7202C22.8547 22.8447 23.8097 21.7526 24.5253 20.5066C25.2409 19.2605 25.7029 17.8853 25.8849 16.4599C26.3538 12.8609 25.0261 9.36198 22.4497 6.95568Z" fill="white"/>
</svg>
