<svg width="170" height="170" viewBox="0 0 170 170" fill="none" xmlns="http://www.w3.org/2000/svg">
<g filter="url(#filter0_d_14_138)">
<path d="M85 61.6667L67.5 71.875V92.2917L85 102.5L102.5 92.2917V71.875L85 61.6667ZM93.8492 73.5667L84.9242 78.77L76.075 73.6075L85 68.4042L93.8492 73.5667ZM73.275 78.7117L81.9317 83.7633V93.9717L73.275 88.9258V78.7117ZM87.7067 94.1875V83.88L96.725 78.6183V88.9258L87.7067 94.1875ZM32.5 15L15 25.2083V45.625L32.5 55.8333L50 45.625V25.2083L32.5 15ZM41.3492 26.9L32.4242 32.1033L23.575 26.9408L32.5 21.7375L41.3492 26.9ZM20.775 32.0392L29.4317 37.0908V47.2992L20.775 42.265V32.0392ZM35.2067 47.515V37.2133L44.225 31.9517V42.2592L35.2067 47.515ZM32.5 114.167L15 124.375V144.792L32.5 155L50 144.792V124.375L32.5 114.167ZM41.3492 126.067L32.4242 131.27L23.575 126.108L32.5 120.904L41.3492 126.067ZM20.775 131.212L29.4317 136.263V146.472L20.775 141.432V131.212ZM35.2067 146.688V136.38L44.225 131.118V141.426L35.2067 146.688ZM137.5 15L120 25.2083V45.625L137.5 55.8333L155 45.625V25.2083L137.5 15ZM146.349 26.9L137.424 32.1033L128.575 26.9408L137.5 21.7375L146.349 26.9ZM125.775 32.045L134.432 37.0967V47.305L125.775 42.2592V32.045ZM140.207 47.5208V37.2133L149.225 31.9517V42.2592L140.207 47.5208ZM137.5 114.167L120 124.375V144.792L137.5 155L155 144.792V124.375L137.5 114.167ZM146.349 126.067L137.424 131.27L128.575 126.108L137.5 120.904L146.349 126.067ZM125.775 131.212L134.432 136.263V146.472L125.775 141.426V131.212ZM140.207 146.688V136.38L149.225 131.118V141.426L140.207 146.688ZM67.5 32.5H102.5V38.3333H67.5V32.5ZM67.5 131.667H102.5V137.5H67.5V131.667ZM35.4167 67.5V102.5H29.5833V67.5H35.4167ZM57.5425 66.4967L45.17 54.1242L49.2942 50L61.6667 62.3667L57.5425 66.4967ZM108.333 63.3758L120.706 51.0033L124.83 55.1275L112.458 67.5L108.333 63.3758ZM62.4133 101.794L50.0408 114.167L45.9167 110.042L58.2892 97.67L62.4133 101.794ZM113.461 97.4192L125.833 109.792L121.709 113.916L109.337 101.543L113.461 97.4192ZM140.417 67.5V102.5H134.583V67.5H140.417Z" fill="white"/>
</g>
<defs>
<filter id="filter0_d_14_138" x="0" y="0" width="170" height="170" filterUnits="userSpaceOnUse" color-interpolation-filters="sRGB">
<feFlood flood-opacity="0" result="BackgroundImageFix"/>
<feColorMatrix in="SourceAlpha" type="matrix" values="0 0 0 0 0 0 0 0 0 0 0 0 0 0 0 0 0 0 127 0" result="hardAlpha"/>
<feOffset/>
<feGaussianBlur stdDeviation="7.5"/>
<feComposite in2="hardAlpha" operator="out"/>
<feColorMatrix type="matrix" values="0 0 0 0 0.862745 0 0 0 0 0.298039 0 0 0 0 0.992157 0 0 0 1 0"/>
<feBlend mode="normal" in2="BackgroundImageFix" result="effect1_dropShadow_14_138"/>
<feBlend mode="normal" in="SourceGraphic" in2="effect1_dropShadow_14_138" result="shape"/>
</filter>
</defs>
</svg>
