<svg width="170" height="153" viewBox="0 0 170 153" fill="none" xmlns="http://www.w3.org/2000/svg">
<g filter="url(#filter0_d_17_148)">
<path d="M145 37.8571H30.7143C28.8199 37.8571 27.0031 37.1046 25.6635 35.765C24.324 34.4255 23.5714 32.6087 23.5714 30.7143C23.5714 28.8199 24.324 27.0031 25.6635 25.6635C27.0031 24.324 28.8199 23.5714 30.7143 23.5714H127.857C128.994 23.5714 130.084 23.1199 130.888 22.3162C131.691 21.5124 132.143 20.4224 132.143 19.2857C132.143 18.1491 131.691 17.059 130.888 16.2553C130.084 15.4515 128.994 15 127.857 15H30.7143C26.5466 15 22.5496 16.6556 19.6026 19.6026C16.6556 22.5496 15 26.5466 15 30.7143V122.143C15 126.311 16.6556 130.308 19.6026 133.255C22.5496 136.202 26.5466 137.857 30.7143 137.857H145C147.652 137.857 150.196 136.804 152.071 134.928C153.946 133.053 155 130.509 155 127.857V47.8571C155 45.205 153.946 42.6614 152.071 40.7861C150.196 38.9107 147.652 37.8571 145 37.8571ZM146.429 127.857C146.429 128.236 146.278 128.599 146.01 128.867C145.742 129.135 145.379 129.286 145 129.286H30.7143C28.8199 129.286 27.0031 128.533 25.6635 127.194C24.324 125.854 23.5714 124.037 23.5714 122.143V44.7071C25.7814 45.8415 28.2302 46.4316 30.7143 46.4286H145C145.379 46.4286 145.742 46.5791 146.01 46.847C146.278 47.1149 146.429 47.4783 146.429 47.8571V127.857ZM126.429 85C126.429 86.4127 126.01 87.7937 125.225 88.9684C124.44 90.143 123.324 91.0585 122.019 91.5991C120.714 92.1398 119.278 92.2812 117.892 92.0056C116.507 91.73 115.234 91.0497 114.235 90.0508C113.236 89.0518 112.556 87.7791 112.28 86.3935C112.005 85.0079 112.146 83.5717 112.687 82.2666C113.227 80.9614 114.143 79.8458 115.317 79.0609C116.492 78.2761 117.873 77.8571 119.286 77.8571C121.18 77.8571 122.997 78.6097 124.336 79.9492C125.676 81.2888 126.429 83.1056 126.429 85Z" fill="white"/>
</g>
<defs>
<filter id="filter0_d_17_148" x="0" y="0" width="170" height="152.857" filterUnits="userSpaceOnUse" color-interpolation-filters="sRGB">
<feFlood flood-opacity="0" result="BackgroundImageFix"/>
<feColorMatrix in="SourceAlpha" type="matrix" values="0 0 0 0 0 0 0 0 0 0 0 0 0 0 0 0 0 0 127 0" result="hardAlpha"/>
<feOffset/>
<feGaussianBlur stdDeviation="7.5"/>
<feComposite in2="hardAlpha" operator="out"/>
<feColorMatrix type="matrix" values="0 0 0 0 0.862745 0 0 0 0 0.298039 0 0 0 0 0.992157 0 0 0 1 0"/>
<feBlend mode="normal" in2="BackgroundImageFix" result="effect1_dropShadow_17_148"/>
<feBlend mode="normal" in="SourceGraphic" in2="effect1_dropShadow_17_148" result="shape"/>
</filter>
</defs>
</svg>
